<svg width="48" height="48" viewBox="0 0 48 48" fill="none" xmlns="http://www.w3.org/2000/svg">
  <defs>
    <linearGradient id="talim" x1="6" y1="4" x2="42" y2="46" gradientUnits="userSpaceOnUse">
      <stop stop-color="#23695B"/>
      <stop offset="1" stop-color="#184B41"/>
    </linearGradient>
  </defs>
  <rect x="2" y="2" width="44" height="44" rx="14" fill="url(#talim)"/>
  <g transform="translate(9.6 9.6) scale(0.6)">
    <path d="M24 27C19.5 24 14 24 9 25.5V41C14 39.5 19.5 39.5 24 42Z" fill="#F7F2E8"/>
    <path d="M24 27C28.5 24 34 24 39 25.5V41C34 39.5 28.5 39.5 24 42Z" fill="#9DC4B8"/>
    <g stroke="#F7F2E8" stroke-width="2.2">
      <line x1="24" y1="27" x2="16" y2="15"/>
      <line x1="24" y1="27" x2="33" y2="17"/>
      <line x1="16" y1="15" x2="25" y2="8"/>
    </g>
    <circle cx="16" cy="15" r="3.4" fill="#F7F2E8"/>
    <circle cx="33" cy="17" r="3.4" fill="#F7F2E8"/>
    <circle cx="25" cy="8" r="4" fill="#D9663D"/>
  </g>
</svg>
